<svg width="80" height="50" viewBox="0 0 80 50" fill="none" xmlns="http://www.w3.org/2000/svg">
<rect width="80" height="50" fill="#FEFF80"/>
<path fill-rule="evenodd" clip-rule="evenodd" d="M14.4874 34.2055C14.0664 34.2055 13.8291 33.9771 13.8291 33.5704V26.4233L8.35002 17.1896C8.08577 16.7328 8.29627 16.4277 8.7964 16.4277H12.1689C12.5377 16.4277 12.7751 16.581 12.9318 16.8846L15.9371 22.4298L18.9394 16.8846C19.0961 16.581 19.3335 16.4277 19.7022 16.4277H23.0748C23.5749 16.4277 23.7854 16.7328 23.5226 17.1896L18.0436 26.4233V34.1893" fill="black"/>
<path fill-rule="evenodd" clip-rule="evenodd" d="M67.915 33.5709V22.1432C67.915 21.7359 68.1461 21.5078 68.557 21.5078H71.1233C71.5342 21.5078 71.7653 21.7359 71.7653 22.1432V33.5709C71.7653 33.9767 71.5342 34.2062 71.1233 34.2062H68.557C68.1461 34.2062 67.915 33.9767 67.915 33.5709" fill="black"/>
<path fill-rule="evenodd" clip-rule="evenodd" d="M31.8331 28.4932C31.8331 26.7863 30.5 25.6553 28.7683 25.6553C27.0367 25.6553 25.7051 26.7863 25.7051 28.4932C25.7051 30.2001 27.0367 31.3297 28.7683 31.3297C30.5 31.3297 31.8331 30.2001 31.8331 28.4932M21.7109 28.4933C21.7109 24.9097 24.8524 22.1426 28.769 22.1426C32.6855 22.1426 35.8285 24.9097 35.8285 28.4933C35.8285 32.0769 32.6855 34.841 28.769 34.841C24.8524 34.841 21.7109 32.0769 21.7109 28.4933" fill="black"/>
<path fill-rule="evenodd" clip-rule="evenodd" d="M39.6797 34.2055V17.0813C39.6797 16.6638 39.9115 16.4277 40.3212 16.4277H42.887C43.2981 16.4277 43.5299 16.6638 43.5299 17.0813V33.5564C43.5299 33.971 43.2981 34.2055 42.887 34.2055" fill="black"/>
<path fill-rule="evenodd" clip-rule="evenodd" d="M60.0499 25.3175C60.0499 22.2692 58.0686 20.3373 55.2016 20.3373H51.551V30.2947H55.2016C58.0686 30.2947 60.0499 28.3628 60.0499 25.3175M55.2016 16.4277C60.2318 16.4277 64.0643 20.2871 64.0643 25.3174C64.0643 30.3447 60.2318 34.2055 55.2016 34.2055H48.684H48.0319C47.6135 34.2055 47.3799 33.9755 47.3799 33.5714V17.0619C47.3799 16.6563 47.6135 16.4277 48.0319 16.4277" fill="black"/>
<path fill-rule="evenodd" clip-rule="evenodd" d="M67.915 18.9278V17.1023C67.915 16.6699 68.1461 16.4277 68.557 16.4277H71.1233C71.5342 16.4277 71.7653 16.6699 71.7653 17.1023V18.9278C71.7653 19.3586 71.5342 19.6023 71.1233 19.6023H68.557C68.1461 19.6023 67.915 19.3586 67.915 18.9278" fill="black"/>
<path fill-rule="evenodd" clip-rule="evenodd" d="M26.8438 18.9278V17.1023C26.8438 16.6699 27.0776 16.4277 27.4936 16.4277H35.1778C35.5938 16.4277 35.8277 16.6699 35.8277 17.1023V18.9278C35.8277 19.3586 35.5938 19.6023 35.1778 19.6023H27.4936C27.0776 19.6023 26.8438 19.3586 26.8438 18.9278" fill="black"/>
</svg>
